<?xml version="1.0" encoding="UTF-8"?>
<!-- Gallery 1 — Trench & drainage dig -->
<svg preserveaspectratio="xMidYMid slice" style="width:100%;height:100%;display:block;" viewbox="0 0 600 560" xmlns="http://www.w3.org/2000/svg">
<!-- Sky -->
<rect fill="#6a8fa8" height="560" width="600"></rect>
<!-- House in background -->
<rect fill="#c9a97a" height="160" width="200" x="60" y="160"></rect>
<polygon fill="#a0522d" points="60,160 160,90 260,160"></polygon>
<rect fill="#7a5c3a" height="70" width="50" x="130" y="200"></rect>
<rect fill="#aed6f1" height="35" opacity="0.7" width="40" x="80" y="185"></rect>
<rect fill="#aed6f1" height="35" opacity="0.7" width="40" x="175" y="185"></rect>
<!-- Ground -->
<rect fill="#5a3e28" height="250" width="600" y="310"></rect>
<rect fill="#6b4a2a" height="18" width="600" y="300"></rect>
<!-- Freshly dug trench -->
<rect fill="#2e1d0e" height="55" rx="3" width="420" x="80" y="318"></rect>
<rect fill="#1e1008" height="40" rx="2" width="400" x="90" y="325"></rect>
<!-- Soil mounds on side -->
<ellipse cx="510" cy="308" fill="#7a5230" rx="70" ry="22"></ellipse>
<ellipse cx="525" cy="299" fill="#8a6040" rx="50" ry="16"></ellipse>
<ellipse cx="90" cy="312" fill="#7a5230" rx="55" ry="18"></ellipse>
<!-- Drainage pipe in trench -->
<ellipse cx="290" cy="358" fill="#e05000" opacity="0.8" rx="22" ry="8"></ellipse>
<rect fill="#d04800" height="16" opacity="0.7" rx="8" width="380" x="100" y="350"></rect>
<!-- Mini digger -->
<!-- Tracks -->
<rect fill="#1a1209" height="28" rx="10" width="150" x="300" y="360"></rect>
<circle cx="316" cy="374" fill="#333" r="13" stroke="#555" stroke-width="2"></circle>
<circle cx="434" cy="374" fill="#333" r="13" stroke="#555" stroke-width="2"></circle>
<!-- Body -->
<rect fill="#e8900c" height="48" rx="5" width="130" x="308" y="316"></rect>
<!-- Cab -->
<rect fill="#c07008" height="26" rx="4" width="88" x="318" y="292"></rect>
<rect fill="#aed6f1" height="18" opacity="0.55" rx="2" width="74" x="325" y="295"></rect>
<!-- Arm -->
<line stroke="#8a5000" stroke-linecap="round" stroke-width="12" x1="430" x2="530" y1="308" y2="250"></line>
<line stroke="#7a4800" stroke-linecap="round" stroke-width="9" x1="530" x2="550" y1="250" y2="340"></line>
<!-- Bucket -->
<path d="M542 340 Q550 372 568 376 Q580 375 582 358 L566 340 Z" fill="#555" stroke="#333" stroke-width="2"></path>
<line stroke="#333" stroke-width="2.5" x1="550" x2="548" y1="374" y2="386"></line>
<line stroke="#333" stroke-width="2.5" x1="560" x2="558" y1="376" y2="388"></line>
<line stroke="#333" stroke-width="2.5" x1="570" x2="569" y1="374" y2="386"></line>
<!-- Operator -->
<circle cx="358" cy="302" fill="#2c1a08" r="9"></circle>
<rect fill="#2c1a08" height="12" rx="2" width="12" x="352" y="310"></rect>
<!-- Grass patches -->
<ellipse cx="40" cy="305" fill="#5a8a3a" rx="35" ry="10"></ellipse>
<ellipse cx="570" cy="302" fill="#5a8a3a" rx="30" ry="9"></ellipse>
<!-- Amber overlay -->
<rect fill="rgba(232,144,12,0.06)" height="560" width="600"></rect>
</svg>